<svg width="77" height="131" viewBox="0 0 77 131" fill="none" xmlns="http://www.w3.org/2000/svg">
<path d="M34.3335 2.66637C35.6669 5.1997 35.5335 5.33304 32.2002 4.53304C29.1335 3.73304 28.7335 3.9997 29.4002 5.86636C29.9335 7.1997 30.3335 8.7997 30.3335 9.46636C30.3335 10.2664 31.5335 10.3997 33.1335 9.99969C35.5335 9.19969 35.6669 9.33303 34.4669 11.733C33.4002 13.733 33.4002 14.6664 34.7335 15.0664C35.5335 15.333 35.9335 16.133 35.4002 16.6664C33.9335 18.133 27.9335 13.0664 26.4669 8.93303C25.0002 4.7997 23.4002 4.3997 20.3335 7.5997C18.2002 9.73303 18.2002 9.9997 20.8669 12.133C23.8002 14.533 24.6002 17.333 22.4669 17.333C21.8002 17.333 20.0669 15.733 18.4669 13.5997C16.3335 10.6664 15.4002 10.2664 13.4002 11.4664C9.93354 13.5997 10.4669 16.3997 14.7335 18.3997C19.0002 20.3997 19.5335 22.6664 15.6669 22.6664C14.3335 22.6664 12.4669 21.4664 11.6669 19.9997C9.93354 16.7997 5.66687 16.533 4.46688 19.4664C3.40021 22.133 6.06687 25.733 8.33354 24.7997C10.0669 24.133 13.0002 26.3997 13.0002 28.2664C13.0002 30.133 10.0669 29.4664 7.40021 27.0664C5.13354 24.933 4.73354 24.933 2.60021 27.0664C-0.199791 29.9997 1.93354 33.9997 6.46687 34.133C11.8002 34.2664 13.0002 34.6664 13.0002 35.8664C13.0002 37.5997 8.06687 38.533 6.60021 37.0664C4.33354 34.7997 0.733542 36.933 1.26688 40.2664C1.66688 42.933 2.33354 43.333 7.40021 42.933C10.7335 42.6664 13.0002 43.0664 13.0002 43.8664C13.0002 45.4664 11.9335 45.733 5.66687 45.8664C2.33354 45.9997 1.53354 46.6664 1.26688 49.4664C0.733542 53.733 4.06688 55.4664 6.86687 52.6664C9.13354 50.3997 12.4669 49.9997 13.6669 51.9997C14.0669 52.6664 13.8002 53.333 13.0002 53.333C12.2002 53.333 10.0669 56.6664 8.20021 60.7997C6.20021 65.333 3.93354 68.533 2.33354 68.933C0.866875 69.333 0.0668753 70.2664 0.466875 70.933C1.53354 72.6664 10.0669 71.0664 14.0669 68.533C15.8002 67.333 18.0669 66.7997 19.2669 67.1997C20.6002 67.733 21.1335 67.1997 21.0002 64.933C20.4669 58.7997 20.8669 58.3997 24.7335 61.5997L28.6002 64.6664L25.4002 68.7997C23.8002 71.0664 22.3335 73.5997 22.3335 74.3997C22.3335 76.7997 21.0002 76.3997 18.6002 73.1997C15.0002 68.933 11.9335 71.333 6.46687 82.7997L1.53354 93.333H5.00021C6.86687 93.333 9.80021 92.3997 11.4002 91.1997C13.0002 90.133 15.0002 89.5997 15.6669 89.9997C16.4669 90.3997 17.0002 89.333 17.0002 87.4664C17.0002 81.5997 19.4002 82.3997 19.8002 88.533C20.3335 94.2664 20.2002 94.2664 16.3335 94.133L12.3335 93.9997V103.333C12.3335 108.4 11.8002 113.466 11.2669 114.266C9.26688 117.333 14.8669 116.133 18.8669 112.666C21.8002 110.133 23.1335 109.733 25.1335 110.8C28.0669 112.266 28.2002 112 26.0669 107.333C23.9335 102.666 25.2669 102.133 30.8669 105.333L35.6669 108.266L33.1335 113.066C26.3335 126.533 25.5335 131.6 31.4002 125.2L34.0669 122.533L35.5335 126.933C37.1335 131.2 37.2669 131.2 39.1335 128.8C40.0669 127.333 41.0002 125.333 41.0002 124.133C41.0002 122.8 41.9335 123.066 44.3335 125.333C49.5335 130.266 49.6669 127.6 44.7335 117.333L40.0669 107.866L45.1335 105.2C51.8002 101.866 52.0669 101.866 49.8002 107.333C47.8002 112 48.4669 113.333 51.2669 110.533C52.4669 109.333 53.9335 109.866 57.0002 112.533C61.9335 116.533 65.8002 117.2 64.3335 113.6C63.8002 112.4 63.4002 107.866 63.5335 103.6C63.8002 94.6664 62.0669 91.333 58.2002 93.4664C55.9335 94.6664 55.6669 94.2664 55.6669 88.6664C55.6669 85.333 56.3335 82.6664 57.0002 82.6664C57.8002 82.6664 58.3335 84.533 58.3335 86.7997C58.3335 89.0664 58.8669 90.533 59.6669 89.9997C60.3335 89.5997 62.7335 90.133 64.8669 91.333C67.1335 92.3997 70.6002 93.333 72.6002 93.333C75.8002 93.1997 76.0669 93.0664 74.2002 91.5997C73.0002 90.6664 70.6002 86.3997 68.8669 82.133C67.1335 77.733 64.3335 73.4664 62.7335 72.3997C60.2002 70.6664 59.5335 70.7997 57.2669 73.0664C54.6002 75.733 54.6002 75.733 51.1335 70.2664L47.5335 64.933L50.4669 61.8664C54.6002 57.333 56.0669 57.8664 55.1335 63.333C54.3335 67.0664 54.6002 67.8664 56.2002 67.1997C57.2669 66.7997 60.4669 67.733 63.5335 69.1997C69.1335 72.133 75.0002 72.7997 76.2002 70.7997C76.6002 70.133 75.5335 69.1997 73.8002 68.7997C71.6669 68.2664 69.8002 65.9997 67.8002 61.4664C66.2002 57.733 63.9335 54.2664 62.7335 53.5997C60.8669 52.533 60.8669 52.2664 63.5335 51.333C65.5335 50.7997 67.2669 51.1997 68.8669 52.533C70.8669 54.3997 71.5335 54.3997 73.8002 52.7997C77.2669 50.133 74.7335 45.9997 69.5335 45.8664C63.1335 45.733 62.2002 45.333 63.0002 43.9997C63.5335 43.1997 66.0669 42.7997 68.7335 42.933C73.0002 43.333 73.6669 42.933 74.0669 40.2664C74.6002 36.933 71.2669 34.933 68.6002 37.0664C67.8002 37.733 65.9335 37.8664 64.6002 37.4664C62.3335 36.6664 62.3335 36.3997 64.2002 34.7997C65.4002 33.8664 67.2669 33.333 68.3335 33.8664C73.1335 35.5997 76.4669 30.6664 72.7335 26.933C71.6669 25.8664 70.3335 25.9997 67.5335 27.5997C65.4002 28.7997 63.4002 29.4664 62.8669 28.933C61.5335 27.733 64.8669 23.9997 66.7335 24.6664C69.2669 25.5997 71.9335 23.1997 71.4002 20.533C70.7335 16.933 66.4669 16.533 64.2002 19.8664C63.0002 21.4664 61.0002 22.6664 59.6669 22.6664C56.0669 22.6664 57.6669 19.0664 61.8002 18.133C64.3335 17.4664 65.1335 16.533 64.7335 14.2664C64.2002 10.533 58.7335 9.46636 57.4002 12.933C56.0669 16.6664 51.6669 18.933 51.6669 15.8664C51.6669 15.0664 53.0002 13.333 54.7335 11.8664C57.6669 9.33303 57.6669 9.33303 55.0002 7.33303C51.8002 4.7997 49.8002 5.33303 49.2669 9.06637C48.4669 14.2664 39.6669 19.1997 39.6669 14.533C39.6669 13.733 40.3335 13.5997 41.0002 13.9997C42.8669 15.1997 42.6002 12.933 40.7335 10.7997C39.2669 9.33303 39.6669 9.1997 42.7335 9.86636C46.0669 10.6664 46.3335 10.3997 46.3335 6.66637C46.3335 2.93303 46.0669 2.66637 43.5335 4.13303C41.0002 5.46637 40.8669 5.1997 41.6669 2.7997C42.4669 0.266365 41.9335 -0.000305176 37.6669 -0.000305176C33.2669 -0.000305176 33.0002 0.266367 34.3335 2.66637ZM55.6669 21.1997C54.2002 23.9997 50.3335 25.0664 50.3335 22.7997C50.3335 21.5997 56.0669 17.333 56.7335 17.9997C57.0002 18.2664 56.6002 19.733 55.6669 21.1997ZM22.8669 19.4664C25.0002 20.2664 25.9335 23.9997 23.9335 23.9997C22.6002 23.9997 19.6669 21.0664 19.6669 19.733C19.6669 18.3997 20.0669 18.3997 22.8669 19.4664ZM35.6669 23.8664C35.6669 25.4664 34.4669 26.6664 32.3335 27.1997C28.8669 28.133 28.8669 28.133 35.0002 33.9997C38.3335 37.333 41.0002 40.3997 41.0002 40.933C41.0002 42.2664 45.2669 46.6664 46.7335 46.6664C47.4002 46.6664 47.6669 45.733 47.1335 44.6664C46.6002 43.0664 46.8669 42.933 48.7335 43.733C49.9335 44.3997 51.8002 44.6664 52.7335 44.3997C53.8002 43.9997 54.3335 45.1997 54.3335 47.8664C54.3335 51.733 47.6669 61.333 45.0002 61.333C44.3335 61.333 43.8002 59.0664 43.9335 56.2664C43.9335 49.733 40.6002 42.933 37.4002 43.1997C34.4669 43.333 31.9335 49.4664 31.8002 56.2664C31.6669 62.133 30.6002 62.533 26.6002 58.2664C21.5335 52.933 19.0002 42.933 23.1335 44.533C24.3335 45.0664 26.3335 44.6664 27.4002 43.733C29.1335 42.2664 29.4002 42.3997 28.6002 44.2664C27.2669 48.133 29.8002 47.0664 33.5335 42.3997L36.8669 38.133L32.8669 35.733C27.9335 32.7997 27.8002 32.7997 28.6002 35.8664C29.1335 37.8664 28.6002 38.3997 25.8002 38.133C20.4669 37.8664 21.2669 32.7997 27.5335 26.533C33.2669 20.7997 35.6669 19.9997 35.6669 23.8664ZM45.1335 23.333C49.2669 25.4664 54.3335 32.533 54.3335 35.9997C54.3335 37.333 53.0002 37.9997 50.4669 38.133C47.4002 38.2664 46.8669 37.733 47.2669 35.733C48.0669 32.7997 46.6002 32.6664 43.4002 35.5997C39.4002 39.1997 38.8669 36.2664 43.0002 31.9997L46.7335 28.133L43.5335 27.333C41.4002 26.7997 40.2002 25.5997 40.2002 23.8664C40.2002 20.7997 40.2002 20.7997 45.1335 23.333ZM21.0002 27.1997C21.0002 30.2664 19.2669 30.6664 16.7335 28.3997C13.4002 25.4664 13.6669 24.2664 17.6669 25.0664C19.5335 25.333 21.0002 26.3997 21.0002 27.1997ZM62.3335 24.3997C62.3335 24.6664 60.8669 26.2664 59.1335 27.8664C56.4669 30.3997 55.9335 30.533 55.1335 28.6664C54.6002 27.333 55.4002 26.133 57.4002 25.333C60.6002 24.133 62.3335 23.733 62.3335 24.3997ZM16.6002 42.133C15.8002 43.0664 11.6669 41.1997 11.6669 39.9997C11.6669 37.9997 16.3335 37.8664 16.7335 39.733C17.0002 40.6664 17.0002 41.8664 16.6002 42.133ZM62.7335 38.933C65.5335 40.3997 65.5335 40.3997 63.0002 41.333C60.6002 42.2664 58.4669 40.7997 58.3335 38.2664C58.3335 36.933 59.4002 37.0664 62.7335 38.933ZM61.5335 46.133C64.4669 47.1997 64.2002 48.933 61.0002 49.733C59.0002 50.2664 58.3335 49.733 58.3335 47.8664C58.3335 45.0664 58.4669 44.933 61.5335 46.133ZM39.6669 53.9997C39.6669 55.4664 40.6002 58.3997 41.6669 60.533C43.5335 63.9997 43.4002 64.6664 40.8669 68.7997C39.4002 71.333 37.5335 73.333 36.8669 73.333C36.0669 73.333 35.8002 72.7997 36.3335 72.133C36.7335 71.4664 36.0669 69.8664 34.8669 68.6664C33.5335 67.333 33.0002 65.4664 33.5335 63.5997C37.0002 49.9997 37.6669 48.2664 38.6002 49.733C39.1335 50.6664 39.6669 52.533 39.6669 53.9997ZM19.6669 56.533C19.6669 57.4664 18.2002 59.5997 16.3335 61.333L13.0002 64.3997V61.333C13.0002 59.5997 13.9335 57.0664 15.1335 55.8664C17.4002 53.333 19.6669 53.5997 19.6669 56.533ZM60.7335 56.3997C61.5335 57.1997 62.6002 59.8664 63.1335 61.9997L64.0669 65.9997L60.4669 62.7997C58.6002 60.933 57.0002 58.3997 57.0002 57.0664C57.0002 54.2664 58.7335 53.8664 60.7335 56.3997ZM31.5335 77.0664C30.0669 77.333 27.8002 77.333 26.3335 77.0664C23.8002 76.6664 23.9335 76.3997 27.2669 72.133L30.8669 67.5997L32.3335 72.133C33.8002 76.133 33.6669 76.6664 31.5335 77.0664ZM49.4002 73.0664L51.9335 77.333H47.0002C42.4669 77.333 42.0669 77.0664 42.8669 74.2664C43.2669 72.6664 43.6669 70.533 43.6669 69.5997C43.6669 66.6664 46.7335 68.533 49.4002 73.0664ZM15.8002 82.6664C10.8669 87.5997 10.0669 87.5997 11.1335 82.933C12.4669 77.333 14.2002 75.8664 17.1335 77.4664C19.6669 78.6664 19.5335 78.933 15.8002 82.6664ZM64.4669 83.333L65.2669 87.333L60.8669 82.933C57.1335 79.333 56.7335 78.3997 58.3335 77.333C60.8669 75.733 63.1335 77.9997 64.4669 83.333ZM34.0669 84.933C33.6669 87.0664 32.8669 89.733 32.3335 91.1997C31.4002 93.333 31.6669 93.4664 34.2002 92.6664C37.0002 91.8664 37.1335 91.9997 35.6669 94.6664C34.4669 96.933 34.4669 98.533 35.5335 100.8C37.5335 105.2 34.4669 105.066 29.1335 100.533C25.1335 97.1997 22.3335 90.533 22.3335 84.2664C22.3335 81.5997 23.0002 81.333 28.4669 81.333C34.4669 81.333 34.6002 81.4664 34.0669 84.933ZM53.0002 86.133C53.0002 92.6664 49.8002 98.933 45.1335 101.733C43.0002 102.933 41.0002 104 40.6002 104C40.3335 104 40.2002 101.333 40.2002 97.9997C40.3335 93.4664 40.7335 92.133 42.2002 92.6664C43.9335 93.333 43.9335 93.0664 41.5335 84.2664C40.7335 81.5997 41.1335 81.333 46.8669 81.333H53.0002V86.133ZM21.6669 98.7997C23.0002 100.933 21.1335 106.666 19.1335 106.666C16.6002 106.666 15.4002 102.933 17.0002 99.8664C18.6002 97.0664 20.3335 96.533 21.6669 98.7997ZM59.1335 98.933C59.5335 99.4664 59.5335 101.733 59.0002 104C58.0669 108 57.9335 108.133 55.5335 105.866C53.1335 103.6 52.2002 99.8664 53.8002 98.3997C54.7335 97.4664 57.9335 97.8664 59.1335 98.933ZM40.0669 117.466C40.4669 119.066 40.0669 120.4 38.8669 120.933C36.2002 122 35.2669 120.666 36.3335 117.466C37.4002 113.866 39.1335 113.866 40.0669 117.466Z" fill="white"/>
</svg>
