<svg width="224" height="201" viewBox="0 0 224 201" fill="none" xmlns="http://www.w3.org/2000/svg">
<path d="M108.534 2.40077C107.334 3.3341 104.8 7.06744 102.934 10.8008C100 16.6674 90.8003 26.0008 88.1337 26.0008C87.7337 26.0008 81.3337 30.6674 73.867 36.2674C59.2003 47.3341 40.9337 63.8674 30.667 75.3341C26.9337 79.3341 23.7337 82.9341 23.3337 83.3341C20.667 85.7341 9.73366 101.334 6.13366 107.601C1.20033 116.401 1.46699 120.134 7.46699 122.267L11.3337 123.601V146.267V168.934L6.00033 173.867C0.933659 178.401 0.666992 179.201 0.666992 186.267C0.666992 193.067 1.06699 194.134 4.80033 197.201L8.93366 200.801L48.267 200.667L87.6003 200.534L90.8003 197.067C93.867 193.734 94.0003 192.934 94.1337 171.467C94.267 159.334 94.4003 148.667 94.667 148.001C94.8003 147.201 95.067 145.334 95.067 143.601C95.2003 142.001 97.3337 138.534 99.7337 136.001C107.467 127.601 120.267 128.801 126.667 138.534C128.534 141.201 128.8 145.734 128.8 164.934C128.667 178.934 129.2 189.867 130.134 192.401C132.8 200.267 135.067 200.667 177.334 200.667H215.6L219.467 196.801C222.667 193.467 223.334 191.867 223.334 186.134C223.334 180.001 222.8 178.934 218 174.401L212.667 169.334V146.401C212.667 125.201 212.8 123.467 215.2 122.667C216.534 122.267 218.667 120.801 220 119.467C222.134 117.067 222.134 116.534 219.6 111.067C215.734 102.401 201.734 84.2674 187.467 69.6008C171.2 52.6674 158.667 42.2674 133.067 24.0008C127.467 20.0008 123.734 16.1341 121.867 12.4008C118.667 5.86744 114.267 0.667437 112.134 0.667437C111.334 0.667437 109.734 1.46744 108.534 2.40077ZM116.667 12.0008C120 20.1341 121.867 22.0008 141.6 35.7341C159.467 48.4008 180.4 67.0674 192.667 81.2008C202.267 92.2674 219.734 116.801 218.667 117.734C218.4 118.001 199.067 118.134 175.734 118.001C133.334 117.867 133.2 117.867 126.667 114.667C117.867 110.134 106.667 110.134 96.9337 114.667C90.0003 117.867 89.6003 117.867 47.6003 118.001C15.2003 118.134 5.46699 117.734 5.73366 116.534C6.66699 113.067 18.1337 96.6674 27.7337 85.0674C43.867 66.0008 64.1337 47.8674 89.2003 30.6674C101.334 22.2674 102.667 20.9341 106.267 13.0674C108.534 8.40077 111.067 4.66744 112 4.66744C112.934 4.66744 115.067 8.00077 116.667 12.0008ZM127.467 120.001C134 123.334 134 123.334 169.867 123.334C198 123.334 206 123.734 207.2 125.067C208 126.134 208.8 135.867 208.934 150.667C209.334 170.134 209.734 174.534 211.334 175.334C218.4 178.667 218.667 178.934 219.067 185.334C219.867 196.934 220.667 196.667 177.067 196.667C153.467 196.667 138.134 196.134 136.534 195.334C134.134 194.001 134 192.267 134 168.934C134 145.601 133.734 143.467 131.067 138.001C123.334 122.667 104 121.601 93.467 135.734C90.9337 139.201 90.667 141.601 90.267 166.401C90.0003 189.601 89.6003 193.601 87.7337 194.934C86.0003 196.267 75.7337 196.667 47.2003 196.667C3.06699 196.667 4.26699 196.934 4.93366 185.601C5.20033 180.801 6.00033 178.667 7.73366 177.867C15.2003 174.134 14.667 176.267 15.3337 149.201L16.0003 124.001L54.1337 123.334C83.3337 122.801 92.8003 122.267 94.4003 120.934C101.734 114.801 116.8 114.401 127.467 120.001Z" fill="white"/>
</svg>
