<svg id="Layer_1" data-name="Layer 1" xmlns="http://www.w3.org/2000/svg" viewBox="0 0 160.9 144"><defs><style>.cls-1{fill:#fff;}</style></defs><title>home</title><path class="cls-1" d="M143.54,44c2.5,6.1,3.9,7.5,18.7,17.8,13.4,9.5,29.1,23.5,38.3,34.1,7.2,8.3,20.3,26.7,19.5,27.4-.2.2-14.7.3-32.2.2-31.8-.1-31.9-.1-36.8-2.5-6.6-3.4-15-3.4-22.3,0-5.2,2.4-5.5,2.4-37,2.5-24.3.1-31.6-.2-31.4-1.1.7-2.6,9.3-14.9,16.5-23.6,12.1-14.3,27.3-27.9,46.1-40.8,9.1-6.3,10.1-7.3,12.8-13.2,1.7-3.5,3.6-6.3,4.3-6.3S142.34,41,143.54,44Zm8.1,81c4.9,2.5,4.9,2.5,31.8,2.5,21.1,0,27.1.3,28,1.3.6.8,1.2,8.1,1.3,19.2.3,14.6.6,17.9,1.8,18.5,5.3,2.5,5.5,2.7,5.8,7.5.6,8.7,1.2,8.5-31.5,8.5-17.7,0-29.2-.4-30.4-1-1.8-1-1.9-2.3-1.9-19.8s-.2-19.1-2.2-23.2c-5.8-11.5-20.3-12.3-28.2-1.7-1.9,2.6-2.1,4.4-2.4,23-.2,17.4-.5,20.4-1.9,21.4s-9,1.3-30.4,1.3c-33.1,0-32.2.2-31.7-8.3.2-3.6.8-5.2,2.1-5.8,5.6-2.8,5.2-1.2,5.7-21.5L68,128l28.6-.5c21.9-.4,29-.8,30.2-1.8C132.34,121.08,143.64,120.78,151.64,125Z" transform="translate(-59.6 -38.48)"/></svg>