<svg id="Layer_1" data-name="Layer 1" xmlns="http://www.w3.org/2000/svg" viewBox="0 0 125.76 203.46"><defs><style>.cls-1{fill:#fff;}</style></defs><title>mekuamiya</title><path class="cls-1" d="M159,29.6c-3.6.7-12.3,3.5-13.5,4.4-3.6,2.7-13.7,4.4-25.5,4.4-12.1,0-12.9-.1-24.6-4.2C81.8,29.5,77.5,29.1,71,32.1c-12.5,5.6-16.2,16.1-9.8,28.1,4.2,7.9,9.7,11.3,18.3,11.3a20.81,20.81,0,0,0,11.3-2.7l5.1-2.7,3.8,4.3a58.65,58.65,0,0,1,6.5,9.7c3.4,6.9,7.7,27.7,7.2,34.7-.3,3.5.1,6,1,7.5,1.2,1.7,1.3,3.7.6,9.2-.9,7.6-1.7,28.3-2.6,65.8-.4,22.5-.6,24.1-2.6,26.8l-2.2,2.9,2,2.1c2.8,2.7,13.2,4.3,22.7,3.5,6.5-.7,7.6-1.1,8.7-3.2s1.1-2.7-.3-4.2-1.9-5.8-2.7-23.8c-1.3-28.9-1.8-38-2.5-43.4a64.51,64.51,0,0,1-.4-6.5c.9-16.5,1.4-38.5.9-41.8-.4-2.7,2.1-19.2,3.9-25.5,2.3-8.3,6.9-18.2,8.5-18.2a8.25,8.25,0,0,1,3.4,1.6c3.7,2.5,12.4,3,17.9.9,10.8-4.1,14.8-10.1,14.1-21.3-.3-5.7-.8-7.6-3.2-10.7a20.09,20.09,0,0,0-6.3-5.2A35,35,0,0,0,159,29.6Zm15.9,5.1c6.1,4.6,8.8,15,5.5,21.8-1.9,4.2-8.5,8.9-14.6,10.6a17.13,17.13,0,0,1-14.6-3.6l-2.9-2.4-2.1,2.2c-4.9,5.2-10.8,23.1-12,36.4l-.7,7.8-8.7.3-8.7.3-.6-3.8c-3.6-20.5-6.2-27.2-14.5-37.2L95.8,61,92,64.4c-6,5.4-15.4,6.1-22.7,1.6C65.1,63.5,61,55.4,61,49.8c0-6.4,2.8-10.8,9-14.1,7.3-3.8,11.6-3.5,25.7,1.5,11.6,4.2,12.1,4.2,24.3,4.2,13.1-.1,15.7-.6,32.5-6.9C161,31.4,170.5,31.5,174.9,34.7ZM129.3,111c4.9,0,7.2,1.9,5,4.1-1.7,1.7-18.1,0-18.8-1.9-.8-2.2,1.5-3.4,5.5-2.7C122.9,110.7,126.7,111,129.3,111Zm.5,6.6c4.6.6,5.2.9,5.2,3s-.4,2.4-4.2,2.4c-2.4,0-6.7-.3-9.5-.6-4.7-.6-5.3-.9-5.3-3s.4-2.4,4.3-2.4C122.6,117,126.9,117.3,129.8,117.6Zm2,8.9c1.8.6,1.6,21.2-.3,24.5-2.1,3.7-1.9,5.3.5,4,1.7-.9,2-.8,2,1.4,0,1.9-.4,2.3-2,1.9-2.5-.7-2.6.9-.1,3.1,1.6,1.5,1.9,3.9,2.5,19.9.3,10,.9,23.5,1.2,29.9l.7,11.8-8.4-.1c-4.6-.1-9.5-.4-10.9-.8l-2.5-.6,1.1-40c.6-22,1.5-43.7,1.9-48.1l.7-8.2,6.1.5A61.56,61.56,0,0,1,131.8,126.5Zm8.1,100.1c.2.2.1,1-.2,1.9-.5,1.2-2.5,1.5-10.4,1.4-13-.1-18.7-1-19.1-3-.3-1.4,1.3-1.6,14.5-1.1C132.8,226,139.7,226.4,139.9,226.6Z" transform="translate(-58.12 -29.35)"/><path class="cls-1" d="M84,41.2c-4.9,6.7-3.7,10.7,1.4,4.7,2.2-2.6,3.7-8.9,2.1-8.9C87.2,37,85.7,38.9,84,41.2Z" transform="translate(-58.12 -29.35)"/><path class="cls-1" d="M167.6,42c-2.5,3-3.5,7-1.8,7,1.4,0,6-5.4,6.4-7.4C172.7,38.5,170.4,38.7,167.6,42Z" transform="translate(-58.12 -29.35)"/><path class="cls-1" d="M152.5,43.6c7.5,6.6,12.8,7.8,9,2-1.9-2.8-7.2-5.6-10.7-5.6C148.7,40.1,148.8,40.4,152.5,43.6Z" transform="translate(-58.12 -29.35)"/><path class="cls-1" d="M66.2,43.6c.2,1.1,2,2.5,4.8,3.5,4.8,1.8,7,1.5,7-.7,0-1.8-2.8-3.2-8-4C66.3,41.8,65.8,41.9,66.2,43.6Z" transform="translate(-58.12 -29.35)"/><path class="cls-1" d="M128.1,48.9C123.7,53,121.3,60,124.3,60c1.5,0,6.9-5.5,8.6-8.7,1.1-2.2.6-5.3-.9-5.3C131.6,46,129.8,47.3,128.1,48.9Z" transform="translate(-58.12 -29.35)"/><path class="cls-1" d="M106,52.9c.5,1.1,2.4,2.8,4.2,3.9,3.8,2.3,10.8,4.4,10.8,3.3,0-2.4-4.7-6.2-9.2-7.6C105.2,50.6,104.7,50.6,106,52.9Z" transform="translate(-58.12 -29.35)"/><path class="cls-1" d="M75.9,54.7c-3.5,3.7-5.2,7.1-4.5,8.9,1.5,3.9,8-4.3,7.4-9.2l-.3-2.6Z" transform="translate(-58.12 -29.35)"/><path class="cls-1" d="M84.2,55.5c4,3.7,8.8,4.8,8.8,2,0-2.1-5.9-5.5-9.5-5.5l-3,.1Z" transform="translate(-58.12 -29.35)"/><path class="cls-1" d="M155.2,55.3c-3.6,3.7-4.1,5.7-1.3,5.7,2.2,0,8.4-6.7,7.6-8.1C160.4,51.2,158.4,52,155.2,55.3Z" transform="translate(-58.12 -29.35)"/><path class="cls-1" d="M164,53.4c0,2,7,7.6,9.4,7.6,1.8,0,.2-4.1-2.1-5.8C167.7,52.7,164,51.8,164,53.4Z" transform="translate(-58.12 -29.35)"/><path class="cls-1" d="M126.5,66c3.6,3.7,9.9,6.9,11.2,5.7.8-.8-3.4-5.8-6.5-7.9a11.94,11.94,0,0,0-5.7-1.8h-2.9Z" transform="translate(-58.12 -29.35)"/><path class="cls-1" d="M114.4,66.4c-3.5,3.5-4.5,6.6-2,6.6,2,0,5.8-3.4,7.9-6.9,1.8-3.1,1.8-3.1-.3-3.1C118.8,63,116.3,64.5,114.4,66.4Z" transform="translate(-58.12 -29.35)"/><path class="cls-1" d="M121.5,148.2c.9,2.9,5.2,7.4,6.2,6.4,1.2-1.1-3-8-5-8.4C121.1,145.9,120.9,146.2,121.5,148.2Z" transform="translate(-58.12 -29.35)"/><path class="cls-1" d="M124.2,159.2c-2.6,2.9-4.6,7.8-3.1,7.8,1.9,0,6.9-5.8,6.9-7.9C128,156.4,126.9,156.4,124.2,159.2Z" transform="translate(-58.12 -29.35)"/><path class="cls-1" d="M120,185c0,2.6,2.7,8,4,8,1.6,0,1.2-3.9-.7-7.1C121.3,182.5,120,182.2,120,185Z" transform="translate(-58.12 -29.35)"/><path class="cls-1" d="M129.1,189.9c-2.5,3.4-2.6,4.1-.8,4.1,1.6,0,4.1-2.7,5-5.3C134.3,185.9,131.4,186.7,129.1,189.9Z" transform="translate(-58.12 -29.35)"/><path class="cls-1" d="M120.4,196.8c-3.2,2.7-5.4,7.2-3.5,7.2s7.1-5.2,7.1-7.1C124,194.6,123.1,194.5,120.4,196.8Z" transform="translate(-58.12 -29.35)"/><path class="cls-1" d="M126,197.6c0,1.5,4.3,6.4,5.6,6.4,1.8,0,1.8-2-.2-4.8C130.1,197.3,126,196,126,197.6Z" transform="translate(-58.12 -29.35)"/></svg>