<?xml version="1.0" standalone="no"?>
<!DOCTYPE svg PUBLIC "-//W3C//DTD SVG 20010904//EN"
 "http://www.w3.org/TR/2001/REC-SVG-20010904/DTD/svg10.dtd">
<svg version="1.0" xmlns="http://www.w3.org/2000/svg"
 width="300.000000pt" height="427.000000pt" viewBox="0 0 300.000000 427.000000"
 preserveAspectRatio="xMidYMid meet">
<metadata>
Created by potrace 1.10, written by Peter Selinger 2001-2011
</metadata>
<g transform="translate(0.000000,427.000000) scale(0.100000,-0.100000)"
fill="#000000" stroke="none">
<path d="M1566 3884 c-27 -15 -28 -18 -22 -69 4 -40 3 -56 -8 -62 -16 -9 -36
-117 -36 -192 0 -55 -13 -71 -47 -53 -12 7 -40 4 -92 -10 -127 -33 -159 -61
-139 -120 10 -27 39 -45 57 -34 5 3 44 13 86 21 43 8 88 21 100 29 l23 15 -5
-58 c-3 -32 -1 -66 5 -77 7 -14 -2 -168 -34 -554 -24 -294 -44 -543 -44 -552
0 -14 -8 -18 -32 -18 -30 0 -53 -22 -268 -260 -129 -142 -235 -265 -235 -272
0 -12 209 -424 314 -618 l40 -75 52 0 52 1 -7 -76 c-4 -41 -10 -110 -14 -153
-8 -87 -4 -97 45 -97 84 0 96 23 113 219 6 69 12 126 14 128 2 2 27 6 55 10
l52 6 207 259 c114 143 208 263 210 268 3 7 -107 247 -248 545 -29 61 -59 125
-66 142 -13 31 -18 33 -63 33 l-49 0 4 38 c2 20 15 219 29 442 26 418 35 511
60 665 24 149 22 144 63 150 20 3 55 9 77 14 22 5 41 8 42 7 2 -1 -2 -74 -7
-162 -29 -471 -70 -1238 -69 -1290 3 -127 18 101 70 1056 16 301 25 409 35
421 31 36 -2 77 -52 65 -26 -7 -30 -26 -13 -58 13 -25 4 -35 -16 -18 -11 9
-14 22 -10 38 5 19 3 23 -12 18 -10 -3 -31 -8 -46 -12 l-28 -7 6 70 c5 47 4
73 -4 77 -7 5 -4 23 10 58 11 28 16 55 12 59 -16 15 -107 59 -122 59 -9 -1
-29 -8 -45 -16z m19 -72 l-8 -47 -9 38 c-5 26 -4 46 4 60 16 31 22 7 13 -51z
m50 58 c4 -6 10 -8 14 -6 4 3 20 -5 36 -18 27 -22 28 -24 12 -47 -19 -26 -22
-43 -7 -34 6 3 7 -1 4 -9 -3 -9 -7 -16 -8 -16 0 0 -21 6 -46 14 -48 15 -48 15
-35 94 6 32 18 41 30 22z m24 -138 c45 -22 55 -48 15 -38 -52 12 -84 28 -84
42 0 19 27 17 69 -4z m-87 -47 c-2 -14 -8 -25 -12 -25 -5 0 -17 -3 -27 -7 -16
-6 -16 -5 -5 10 8 9 11 20 8 26 -3 5 0 12 6 14 27 11 35 6 30 -18z m125 -15
c2 0 3 -11 3 -25 0 -24 -14 -34 -24 -16 -3 4 -26 14 -51 21 -46 13 -49 17 -39
43 5 13 13 12 57 -4 28 -10 53 -19 54 -19z m-138 -72 c-4 -29 -8 -83 -8 -119
-1 -66 -8 -79 -43 -79 -13 0 -4 123 9 127 4 2 7 24 6 50 -1 34 3 52 15 61 26
20 29 15 21 -40z m61 39 c83 -30 101 -53 51 -63 -38 -8 -64 -36 -59 -66 2 -19
9 -23 36 -23 31 0 43 -17 22 -30 -5 -3 -7 -19 -3 -35 6 -34 3 -35 -63 -19
l-46 12 7 86 c6 84 14 151 18 151 1 0 18 -6 37 -13z m140 -80 c8 3 -7 -9 -35
-25 -51 -30 -65 -28 -65 10 0 19 34 28 65 17 11 -3 27 -4 35 -2z m-106 -39 c5
-24 3 -28 -14 -28 -22 0 -27 29 -8 48 14 14 13 14 22 -20z m-223 -45 c-7 -26
-16 -30 -100 -52 -51 -13 -95 -20 -99 -16 -7 7 42 47 62 52 6 1 25 6 43 11 17
6 34 8 37 4 3 -3 6 0 6 6 0 6 10 13 23 15 12 2 25 5 29 6 3 0 3 -11 -1 -26z
m59 -5 c0 -13 -8 -18 -25 -18 -22 0 -34 18 -20 31 12 13 45 3 45 -13z m-12
-44 c-9 -9 -21 -13 -27 -10 -20 13 -11 26 16 26 25 0 26 -1 11 -16z m-44 -9
c3 -8 0 -15 -7 -16 -12 -1 -30 -4 -77 -13 -72 -15 -89 -16 -94 -7 -3 5 29 18
72 29 98 25 99 25 106 7z m179 -31 c34 -11 47 -21 47 -35 0 -24 -7 -24 -64 1
-26 11 -46 26 -46 35 0 19 5 19 63 -1z m-73 -59 c0 -14 4 -25 9 -25 4 0 6 12
3 26 -4 24 -3 26 19 19 49 -15 75 -34 76 -55 2 -19 -1 -21 -25 -15 -15 4 -47
8 -72 9 -39 1 -45 5 -48 25 -3 21 11 40 31 41 4 0 7 -11 7 -25z m62 -61 l33
-16 -7 -76 c-3 -42 -7 -111 -8 -152 -2 -60 -4 -69 -11 -45 -6 22 -7 13 -3 -29
4 -50 -18 -460 -31 -581 -2 -22 -4 -67 -4 -101 l-1 -61 -69 -46 c-66 -44 -69
-45 -75 -24 -7 27 13 54 25 35 6 -8 9 4 9 30 0 30 -3 41 -12 36 -8 -5 -9 -2
-3 12 11 24 12 60 3 101 -6 27 -5 31 8 26 13 -5 15 -1 10 13 -11 36 -14 104
-5 110 6 3 10 27 9 52 0 26 3 66 8 89 5 23 5 40 1 37 -5 -3 -9 9 -9 25 0 17 4
31 9 31 5 0 9 33 8 74 -1 46 4 80 11 89 10 12 10 16 0 19 -10 4 -9 15 5 54 11
31 14 50 7 52 -13 5 -13 42 0 42 6 0 9 19 9 43 l-2 42 -8 -40 c-5 -27 -6 -13
-3 40 7 122 9 126 56 134 4 0 22 -6 40 -15z m-78 -1201 c-66 -71 -130 -140
-144 -154 -14 -14 -60 -64 -102 -110 -74 -82 -80 -87 -145 -104 -37 -10 -75
-21 -83 -23 -8 -3 75 90 183 208 214 231 310 310 376 310 l33 0 -118 -127z
m197 17 c24 -52 47 -96 51 -98 5 -2 8 -10 8 -17 0 -7 44 -107 99 -221 54 -115
101 -219 105 -231 6 -18 -27 -65 -192 -273 -145 -181 -202 -247 -209 -237 -6
6 -35 59 -65 117 -123 234 -185 351 -245 464 l-63 119 48 51 c26 28 99 108
162 176 196 213 243 261 251 253 4 -5 26 -51 50 -103z m-323 2 c-12 -15 -46
-51 -74 -82 -28 -30 -109 -118 -180 -195 -123 -134 -131 -141 -188 -157 l-59
-17 35 37 c19 20 121 132 226 249 149 164 198 212 220 215 39 4 49 -18 20 -50z
m-14 -741 c103 -194 185 -355 183 -357 -2 -2 -28 -6 -58 -10 -54 -6 -54 -6
-83 33 -16 21 -45 51 -65 67 -26 22 -74 99 -181 294 -80 146 -145 269 -145
275 0 12 123 47 142 40 7 -3 13 1 13 8 0 7 2 10 4 8 2 -2 88 -163 190 -358z
m-334 232 c23 -43 93 -170 156 -283 l113 -205 -14 -74 c-8 -41 -17 -76 -19
-78 -2 -3 -14 -2 -25 2 -22 7 -46 49 -201 350 -57 110 -118 228 -136 263 -24
44 -30 64 -22 67 7 3 33 11 58 19 25 8 46 14 47 15 0 1 20 -34 43 -76z m351
-558 l28 -30 -41 -7 c-23 -4 -49 -15 -59 -24 -23 -21 -24 -13 -7 68 12 56 12
57 32 40 11 -9 32 -30 47 -47z m62 -62 c3 -5 1 -33 -4 -63 -4 -30 -12 -94 -17
-143 -11 -103 -26 -127 -81 -127 l-36 0 3 48 c1 26 7 91 12 145 7 65 7 105 0
117 -7 13 -6 20 3 23 19 8 115 8 120 0z"/>
<path d="M1459 2068 c-7 -13 -19 -28 -27 -34 -8 -6 -12 -16 -8 -23 5 -7 16 -2
35 16 19 19 26 32 19 40 -6 7 -4 13 4 16 9 4 10 6 1 6 -7 1 -18 -9 -24 -21z"/>
<path d="M1390 1980 c0 -6 -4 -8 -10 -5 -5 3 -10 1 -10 -5 0 -7 -7 -9 -17 -6
-15 6 -15 5 1 -13 14 -16 21 -17 31 -8 7 7 11 15 9 19 -2 3 1 8 8 10 9 3 9 6
0 12 -7 4 -12 2 -12 -4z"/>
<path d="M1303 1898 c-21 -27 -21 -34 -2 -35 16 -2 18 1 10 11 -14 16 -4 27
17 19 10 -4 13 -2 8 5 -9 15 -21 15 -33 0z"/>
<path d="M1480 1661 c-49 -5 -65 -10 -65 -21 0 -12 19 -15 100 -17 209 -3 295
-16 295 -42 0 -5 -11 -12 -25 -15 -26 -7 -32 -20 -15 -31 16 -10 105 37 108
58 5 26 -68 55 -174 67 -93 10 -116 10 -224 1z m271 -21 c111 -21 136 -46 77
-76 -30 -16 -32 -16 -19 -1 17 22 8 45 -24 57 -14 5 -94 13 -178 16 -83 4
-154 8 -156 10 -10 9 251 3 300 -6z"/>
<path d="M1668 1351 c-19 -11 -39 -17 -43 -13 -4 4 -5 -4 -3 -17 1 -14 9 -26
16 -29 7 -2 10 2 6 12 -4 10 6 21 33 35 l39 19 3 -41 c2 -45 5 -52 19 -43 11
7 -9 96 -23 96 -6 0 -27 -9 -47 -19z"/>
</g>
</svg>
