<?xml version="1.0" encoding="utf-8"?>
<!-- Generator: Adobe Illustrator 27.8.1, SVG Export Plug-In . SVG Version: 6.00 Build 0)  -->
<svg version="1.1" id="Layer_1" xmlns="http://www.w3.org/2000/svg" xmlns:xlink="http://www.w3.org/1999/xlink" x="0px" y="0px"
	 viewBox="0 0 300 427" style="enable-background:new 0 0 300 427;" xml:space="preserve">
<style type="text/css">
	.st0{fill:#FFFFFF;}
</style>
<g transform="translate(0.000000,427.000000) scale(0.100000,-0.100000)">
	<path class="st0" d="M1411.5,3723.1c-27-15-28-18-22-69c4-40,3-56-8-62c-16-9-36-117-36-192c0-55-13-71-47-53c-12,7-40,4-92-10
		c-127-33-159-61-139-120c10-27,39-45,57-34c5,3,44,13,86,21c43,8,88,21,100,29l23,15l-5-58c-3-32-1-66,5-77c7-14-2-168-34-554
		c-24-294-44-543-44-552c0-14-8-18-32-18c-30,0-53-22-268-260c-129-142-235-265-235-272c0-12,209-424,314-618l40-75h52l52,1l-7-76
		c-4-41-10-110-14-153c-8-87-4-97,45-97c84,0,96,23,113,219c6,69,12,126,14,128s27,6,55,10l52,6l207,259c114,143,208,263,210,268
		c3,7-107,247-248,545c-29,61-59,125-66,142c-13,31-18,33-63,33h-49l4,38c2,20,15,219,29,442c26,418,35,511,60,665
		c24,149,22,144,63,150c20,3,55,9,77,14s41,8,42,7c2-1-2-74-7-162c-29-471-70-1238-69-1290c3-127,18,101,70,1056
		c16,301,25,409,35,421c31,36-2,77-52,65c-26-7-30-26-13-58c13-25,4-35-16-18c-11,9-14,22-10,38c5,19,3,23-12,18c-10-3-31-8-46-12
		l-28-7l6,70c5,47,4,73-4,77c-7,5-4,23,10,58c11,28,16,55,12,59c-16,15-107,59-122,59C1447.5,3738.1,1427.5,3731.1,1411.5,3723.1z
		 M1566.5,1924.7c24-52.3,47-96.5,51-98.5c5-2,8-10.1,8-17.1c0-7,44-107.6,99-222.2c54-115.6,101-220.1,105-232.2
		c6-18.1-27-65.3-192-274.4c-145-181.9-202-248.3-209-238.2c-6,6-35,59.3-65,117.6c-123,235.2-185,352.8-245,466.4l-63,119.6
		l48,51.3c26,28.1,99,108.6,162,176.9c196,214.1,243,262.4,251,254.3C1520.5,2023.2,1542.5,1977,1566.5,1924.7z"/>
	<path class="st0" d="M1459,2068c-7-13-19-28-27-34s-12-16-8-23c5-7,16-2,35,16c19,19,26,32,19,40c-6,7-4,13,4,16c9,4,10,6,1,6
		C1476,2090,1465,2080,1459,2068z"/>
	<path class="st0" d="M1390,1980c0-6-4-8-10-5c-5,3-10,1-10-5c0-7-7-9-17-6c-15,6-15,5,1-13c14-16,21-17,31-8c7,7,11,15,9,19
		c-2,3,1,8,8,10c9,3,9,6,0,12C1395,1988,1390,1986,1390,1980z"/>
	<path class="st0" d="M1303,1898c-21-27-21-34-2-35c16-2,18,1,10,11c-14,16-4,27,17,19c10-4,13-2,8,5C1327,1913,1315,1913,1303,1898
		z"/>
	<path class="st0" d="M1480,1661c-49-5-65-10-65-21c0-12,19-15,100-17c209-3,295-16,295-42c0-5-11-12-25-15c-26-7-32-20-15-31
		c16-10,105,37,108,58c5,26-68,55-174,67C1611,1670,1588,1670,1480,1661z M1751,1640c111-21,136-46,77-76c-30-16-32-16-19-1
		c17,22,8,45-24,57c-14,5-94,13-178,16c-83,4-154,8-156,10C1441,1655,1702,1649,1751,1640z"/>
	<path class="st0" d="M1668,1351c-19-11-39-17-43-13s-5-4-3-17c1-14,9-26,16-29c7-2,10,2,6,12s6,21,33,35l39,19l3-41
		c2-45,5-52,19-43c11,7-9,96-23,96C1709,1370,1688,1361,1668,1351z"/>
</g>
</svg>
