<svg width="13" height="19" viewBox="0 0 13 19" fill="none" xmlns="http://www.w3.org/2000/svg">
<path d="M11.9254 6.88674C12.2863 6.49624 12.2863 5.86304 11.9254 5.47254L7.40394 0.585098C6.68194 -0.195302 5.51207 -0.194993 4.79044 0.585787L0.270695 5.47614C-0.0902316 5.86664 -0.0902316 6.49984 0.270695 6.89034C0.63163 7.28094 1.21681 7.28094 1.57775 6.89034L5.44617 2.70474C5.80717 2.31424 6.39229 2.31424 6.7532 2.70474L10.6184 6.88674C10.9793 7.27724 11.5645 7.27724 11.9254 6.88674Z" fill="white"/>
<path d="M0.278697 11.297C-0.0826535 11.6871 -0.0833721 12.3203 0.277092 12.7112L4.79301 17.6038C5.51413 18.385 6.684 18.386 7.40652 17.606L11.9318 12.7208C12.2932 12.3307 12.2939 11.6975 11.9334 11.3066C11.5729 10.9156 10.9877 10.915 10.6264 11.3051L6.75319 15.4864C6.39175 15.8764 5.80663 15.8758 5.44616 15.4849L1.58573 11.2985C1.22526 10.9076 0.640048 10.9069 0.278697 11.297Z" fill="white"/>
</svg>
