<svg width="183" height="102" viewBox="0 0 183 102" fill="none" xmlns="http://www.w3.org/2000/svg">
<g clip-path="url(#clip0_1172_2)">
<path d="M178.445 1.89009C178.884 1.53574 179.407 1.30058 179.964 1.20729C180.52 1.114 181.092 1.16572 181.623 1.35748C183.444 2.02857 182.262 3.77555 181.268 4.90825C180.273 6.04095 163.695 21.7176 163.695 21.7176L177.401 10.2273C177.401 10.2273 179.055 9.12656 180.071 10.3374C181.086 11.5482 181.069 13.9663 179.993 15.3369C178.917 16.7075 162.658 32.2847 162.658 32.2847L166.347 30.1613C166.347 30.1613 168.588 29.2097 168.957 30.5164C169.326 31.8231 169.944 32.7143 168.538 34.2376C167.132 35.7609 153.49 44.9965 153.49 44.9965L157.587 43.3382C157.587 43.3382 159.675 42.0777 161.088 42.7595C162.502 43.4412 163.276 45.5362 162.154 46.747C161.032 47.9578 143.136 58.7415 143.136 58.7415L152.162 56.0429C152.162 56.0429 155.986 55.3896 156.171 56.4761C156.355 57.5626 158.141 59.9701 153.966 62.0863C149.79 64.2026 142.426 67.1533 142.426 67.1533L149.793 65.9176C149.793 65.9176 151.164 65.7046 151.32 67.3663C151.477 69.0281 151.526 69.5145 150.543 70.7964C149.559 72.0782 128.095 79.3999 128.095 79.3999L142.944 75.5686C142.944 75.5686 145.401 75.6219 145.117 77.3653C144.833 79.1087 145.188 79.3644 143.399 80.7598C141.609 82.1553 126.579 84.9071 126.579 84.9071L136.737 83.7744C136.737 83.7744 138.239 83.6715 138.282 85.3865C138.324 87.1015 139.024 87.1974 137.781 88.2981C136.538 89.3989 131.745 90.0735 131.745 90.0735L134.831 91.1388C134.831 91.1388 137.096 92.5981 135.935 93.7344C134.774 94.8706 135.452 95.5097 133.289 95.9891C131.127 96.4684 129.071 95.9429 128.798 95.634C128.524 95.3251 121.813 95.7263 121.813 95.7263C121.813 95.7263 119.37 99.2771 116.082 99.096C112.794 98.9149 100.196 97.1751 100.196 97.1751C100.196 97.1751 121.948 88.5573 120.524 59.892C119.101 31.2266 178.445 1.89009 178.445 1.89009Z" fill="white" stroke="#231F20" stroke-width="0.355077" stroke-miterlimit="10"/>
<path d="M5.06059 10.2162C4.58905 9.90513 4.04534 9.72083 3.48187 9.68103C2.9184 9.64122 2.35417 9.74726 1.84359 9.98891C0.093063 10.8269 1.43526 12.4744 2.53599 13.4758C3.63673 14.4771 21.6285 28.5381 21.6285 28.5381L6.89279 18.4007C6.89279 18.4007 5.14226 17.4633 4.24747 18.7558C3.35267 20.0482 3.59412 22.4592 4.78718 23.7339C5.98024 25.0087 23.656 38.9597 23.656 38.9597L19.7892 37.2091C19.7892 37.2091 17.4705 36.4741 17.2255 37.8199C16.9805 39.1656 16.4515 40.0994 17.9996 41.4842C19.5477 42.869 33.9958 50.766 33.9958 50.766L29.7633 49.5019C29.7633 49.5019 27.5654 48.4367 26.2125 49.2569C24.8597 50.0771 24.2987 52.2289 25.5024 53.3296C26.7061 54.4304 45.6211 63.4671 45.6211 63.4671L36.3891 61.6349C36.3891 61.6349 32.5223 61.3473 32.4406 62.448C32.3589 63.5487 30.8143 66.1124 35.1676 67.8203C39.5208 69.5282 47.1372 71.7723 47.1372 71.7723L39.6806 71.2397C39.6806 71.2397 38.2958 71.1616 38.2958 72.8305C38.2958 74.4993 38.2958 74.9858 39.3966 76.1682C40.4973 77.3506 62.5582 82.5986 62.5582 82.5986L47.3964 80.1983C47.3964 80.1983 44.9535 80.4824 45.4045 82.1939C45.8554 83.9053 45.5252 84.1858 47.4391 85.3895C49.3529 86.5933 64.5786 87.9141 64.5786 87.9141L54.3595 87.7508C54.3595 87.7508 52.854 87.7934 52.9747 89.5013C53.0954 91.2093 52.4066 91.3761 53.7488 92.342C55.091 93.3078 59.9378 93.5208 59.9378 93.5208L56.9835 94.895C56.9835 94.895 54.8531 96.5638 56.1278 97.5793C57.4025 98.5949 56.7776 99.2908 58.9684 99.5749C61.1592 99.8589 63.1619 99.1275 63.4069 98.8008C63.6519 98.4741 70.3699 98.2327 70.3699 98.2327C70.3699 98.2327 73.136 101.528 76.4063 101.041C79.6765 100.555 92.0297 97.622 92.0297 97.622C92.0297 97.622 69.5568 91.1063 68.2395 62.448C66.9221 33.7897 5.06059 10.2162 5.06059 10.2162Z" fill="white" stroke="#231F20" stroke-width="0.355077" stroke-miterlimit="10"/>
<path d="M117.151 64.4157C115.394 73.0512 108.249 91.3803 94.0712 91.3803C81.3239 91.3803 70.9912 79.3077 70.9912 64.4157C70.9912 51.0684 81.5121 38.6762 94.0712 37.4547C101.72 36.7091 111.285 39.9935 115.688 47.7129C119.271 53.9978 117.929 60.5915 117.151 64.4157Z" stroke="#231F20" stroke-width="13.1379" stroke-miterlimit="10"/>
<path d="M77.7235 54.2142C78.32 53.1881 83.9906 43.814 95.2572 42.6423C103.364 41.8007 112.233 45.419 115.642 51.5441C117.972 55.7269 119.023 63.3823 119.023 63.3823L118.224 72.5504C117.648 78.6922 115.408 84.5605 111.743 89.5231L108.278 93.958L105.182 96.0885C103.62 96.8424 101.937 97.3114 100.211 97.4733C96.5462 97.8071 93.7446 96.6211 91.6603 95.737C89.3073 94.7414 87.1272 93.3787 85.2014 91.6997C79.7048 86.8671 78.0005 80.6568 76.8323 76.3924C75.832 72.9829 75.3532 69.4418 75.412 65.8892C75.4956 61.8925 76.2779 57.9413 77.7235 54.2142Z" fill="white" stroke="#231F20" stroke-width="0.355077" stroke-miterlimit="10"/>
<path d="M107.66 70.5195C108.047 69.3548 109.822 68.2612 111.729 67.9771C114.034 67.622 117.009 68.4032 117.226 69.6424C117.41 70.7077 115.532 71.9753 114.073 72.4369C113.3 72.6301 112.508 72.735 111.711 72.7494C109.865 72.8878 109.18 72.6996 108.718 72.4937C108.267 72.3437 107.887 72.0311 107.653 71.6167C107.515 71.2635 107.518 70.8709 107.66 70.5195Z" stroke="#231F20" stroke-width="0.710154" stroke-miterlimit="10"/>
<path d="M86.5861 62.2286C86.4973 61.238 90.7902 59.388 94.8913 59.6508C99.0635 59.9171 102.792 62.3529 102.678 63.585C102.674 63.7454 102.633 63.9028 102.558 64.0445C102.483 64.1863 102.376 64.3086 102.245 64.4017C101.865 64.6147 101.357 64.3733 101.18 64.2916C98.6658 63.1057 96.4927 62.0795 95.3707 61.767C91.8909 60.8012 89.0148 64.0786 86.9021 62.637C86.6962 62.4807 86.5967 62.36 86.5861 62.2286Z" fill="#231F20"/>
<path d="M100.303 71.7444C100.48 71.6876 100.839 71.5811 101.013 71.7444C101.187 71.9077 101.087 72.4049 100.953 72.6854C100.438 73.7506 99.1026 73.4417 98.6375 74.3578C98.3143 74.9934 98.5451 75.9627 99.0458 76.2574C99.6033 76.5877 100.143 75.8633 101.066 76.0799C101.933 76.2823 102.011 77.0528 102.71 77.3546C103.754 77.8056 105.519 76.9143 106.353 75.7887C108.452 72.9481 104.223 69.1843 106.087 64.7565C106.824 63.1699 108.091 61.8894 109.67 61.1347C113.359 59.4943 117.645 61.8449 117.773 62.4769C117.787 62.5367 117.79 62.5988 117.781 62.6597C117.772 62.7207 117.751 62.7792 117.719 62.832C117.599 63.0166 117.265 62.9705 117.141 62.9527C115.109 62.6935 114.094 62.5621 113.781 62.4662C111.868 61.8697 109.769 63.1444 108.661 64.2416C108.156 64.7292 107.755 65.3134 107.48 65.9594C107.206 66.6054 107.064 67.3 107.063 68.0019C107.052 68.3015 107.059 68.6015 107.085 68.9002C107.348 71.9362 108.281 74.056 107.351 75.8313C107.033 76.3999 106.587 76.8863 106.048 77.2517C105.693 77.5251 104.123 78.7004 102.71 78.2388C102 78.008 102.082 77.6138 101.272 77.344C100.228 76.9889 99.7702 77.5357 99.0138 77.2304C98.1297 76.8753 97.5935 75.6609 97.6397 74.6241C97.6503 74.6241 97.7391 72.554 100.303 71.7444Z" fill="#231F20"/>
<path d="M106.772 68.2646C106.907 68.325 107.33 67.6006 108.352 67.0396C108.985 66.7208 109.665 66.5062 110.366 66.404C111.16 66.205 111.981 66.1354 112.798 66.1981C113.644 66.3147 114.483 66.4843 115.308 66.7058C115.646 66.7946 115.809 66.8443 115.827 66.8159C115.844 66.7875 114.875 66.1058 113.561 65.7898C113.23 65.7038 112.891 65.6468 112.549 65.6193C111.765 65.571 110.977 65.6538 110.22 65.8643C108.974 66.1661 107.791 66.4573 107.127 67.3166C106.804 67.7462 106.666 68.222 106.772 68.2646Z" fill="#231F20"/>
<path d="M88.3687 65.7432C88.3297 65.7006 88.5108 65.5764 88.667 65.4663C89.1196 65.1681 89.6138 64.9384 90.1335 64.7845C90.6805 64.6114 91.2379 64.4726 91.8023 64.3691C93.0201 64.1684 94.2545 64.0876 95.488 64.1276C96.8622 64.1667 97.6966 64.188 98.7228 64.4827C100.069 64.8698 101.421 65.6367 101.247 65.9634C101.188 66.0262 101.115 66.0744 101.033 66.1039C100.952 66.1335 100.865 66.1438 100.779 66.1338C100.544 66.1161 100.477 65.9385 100.168 65.7219C99.92 65.5663 99.6541 65.4411 99.3761 65.3491C99.0171 65.2077 98.6494 65.0891 98.2754 64.994C97.3129 64.7804 96.3317 64.6614 95.346 64.639C94.3803 64.6077 93.4137 64.6552 92.4557 64.781C91.8393 64.868 91.2277 64.9865 90.6235 65.1361C89.3132 65.4663 88.4504 65.832 88.3687 65.7432Z" fill="#231F20"/>
<path d="M97.107 70.6899C98.515 70.6899 99.6565 69.7201 99.6565 68.5239C99.6565 67.3276 98.515 66.3579 97.107 66.3579C95.699 66.3579 94.5576 67.3276 94.5576 68.5239C94.5576 69.7201 95.699 70.6899 97.107 70.6899Z" fill="#231F20"/>
<path d="M117.176 70.1178C117.176 71.2966 115.401 71.9819 114.336 72.1275C113.666 72.2705 112.967 72.1591 112.376 71.8151C112.096 71.6325 111.87 71.3794 111.72 71.0814C111.569 70.7834 111.5 70.451 111.52 70.1178C111.63 68.9673 113.043 68.1045 114.36 68.1045C115.905 68.1045 117.176 69.0064 117.176 70.1178Z" fill="#231F20"/>
<path d="M88.4858 68.0727C88.4858 67.675 89.196 67.3626 90.6447 66.7909C92.0934 66.2192 92.9491 65.8712 94.1954 65.8038C94.7888 65.7798 95.3831 65.8107 95.9708 65.8961C97.0041 66.0239 97.9167 66.134 98.8114 66.7021C99.2517 66.9826 99.7169 67.2809 99.8767 67.8171C100.232 68.8823 99.0778 69.912 98.9144 70.0505C98.3072 70.5618 97.4941 70.7003 96.5319 70.7251C95.2836 70.8018 94.0313 70.6661 92.8284 70.3239C91.8901 69.9674 90.9725 69.5584 90.0801 69.0989C88.7699 68.4953 88.4929 68.3177 88.4858 68.0727Z" stroke="#231F20" stroke-width="0.710154" stroke-miterlimit="10"/>
<path d="M98.5274 82.3682H98.6623C98.699 82.3682 98.7353 82.3755 98.7691 82.3897C98.8029 82.4038 98.8336 82.4245 98.8594 82.4506C98.8852 82.4767 98.9055 82.5077 98.9192 82.5417C98.9329 82.5757 98.9397 82.6121 98.9393 82.6488V82.8689C98.9356 82.896 98.9356 82.9235 98.9393 82.9506C98.9555 82.9926 98.9796 83.0312 99.0103 83.0642C99.4044 83.4903 102.646 83.5648 102.646 83.5648C103.403 83.5648 103.271 83.6004 103.814 83.6039C104.727 83.6288 105.64 83.5693 106.541 83.4264C107.085 83.3351 107.621 83.2058 108.146 83.0393V82.7588C108.147 82.7226 108.155 82.6869 108.169 82.6536C108.183 82.6204 108.204 82.5904 108.23 82.5652C108.256 82.5401 108.287 82.5205 108.321 82.5074C108.355 82.4943 108.391 82.488 108.427 82.489H108.498C108.571 82.489 108.642 82.5181 108.694 82.5701C108.746 82.622 108.775 82.6925 108.775 82.7659V83.6252C108.775 83.6619 108.768 83.6982 108.753 83.732C108.739 83.7659 108.719 83.7965 108.693 83.8223C108.666 83.8481 108.635 83.8684 108.601 83.8821C108.567 83.8958 108.531 83.9026 108.494 83.9022C106.889 84.0442 105.132 84.1294 103.25 84.1188C101.56 84.1188 99.9725 84.03 98.5096 83.9022C98.4358 83.9022 98.365 83.8731 98.3125 83.8213C98.26 83.7694 98.23 83.699 98.2291 83.6252V82.6488C98.229 82.6104 98.2368 82.5724 98.252 82.5371C98.2672 82.5019 98.2895 82.4701 98.3174 82.4438C98.3454 82.4175 98.3784 82.3973 98.4146 82.3843C98.4507 82.3713 98.4891 82.3658 98.5274 82.3682Z" fill="#231F20"/>
<path d="M101.595 85.5179V85.8126L104.681 85.7842V85.5569L104.873 85.4185C104.956 85.4185 105.037 85.4518 105.096 85.511C105.155 85.5703 105.189 85.6507 105.189 85.7345V86.5085C105.189 86.5924 105.155 86.6727 105.096 86.732C105.037 86.7913 104.956 86.8246 104.873 86.8246H101.233C101.149 86.8246 101.069 86.7913 101.01 86.732C100.95 86.6727 100.917 86.5924 100.917 86.5085V85.6635C100.947 85.633 100.981 85.6056 101.017 85.5818C101.087 85.538 101.165 85.5101 101.247 85.5001L101.595 85.5179Z" fill="#6D6E71"/>
<path d="M24.0323 29.7212L31.1409 34.3621" stroke="#414042" stroke-width="0.710154" stroke-miterlimit="10"/>
<path d="M36.1581 37.6357L43.2631 42.2766" stroke="#414042" stroke-width="0.710154" stroke-miterlimit="10"/>
<path d="M45.9299 44.02L53.0385 48.6609" stroke="#414042" stroke-width="0.710154" stroke-miterlimit="10"/>
<path d="M26.2939 39.958L33.399 44.5989" stroke="#414042" stroke-width="0.710154" stroke-miterlimit="10"/>
<path d="M38.4164 47.8726L45.5215 52.5134" stroke="#414042" stroke-width="0.710154" stroke-miterlimit="10"/>
<path d="M48.1916 54.2534L55.2967 58.8943" stroke="#414042" stroke-width="0.710154" stroke-miterlimit="10"/>
<path d="M48.8592 64.4902L56.5075 68.1688" stroke="#414042" stroke-width="0.710154" stroke-miterlimit="10"/>
<path d="M50.8761 72.9517L59.7495 75.8029" stroke="#414042" stroke-width="0.710154" stroke-miterlimit="10"/>
<path d="M63.5347 93.0628L71.3925 90.7832" stroke="#414042" stroke-width="0.710154" stroke-miterlimit="10"/>
<path d="M159.878 24.3062L152.772 28.947" stroke="#414042" stroke-width="0.710154" stroke-miterlimit="10"/>
<path d="M147.755 32.2241L140.65 36.865" stroke="#414042" stroke-width="0.710154" stroke-miterlimit="10"/>
<path d="M137.98 38.605L130.875 43.2458" stroke="#414042" stroke-width="0.710154" stroke-miterlimit="10"/>
<path d="M157.619 34.5425L150.511 39.1833" stroke="#414042" stroke-width="0.710154" stroke-miterlimit="10"/>
<path d="M145.497 42.4575L138.388 47.0984" stroke="#414042" stroke-width="0.710154" stroke-miterlimit="10"/>
<path d="M135.722 48.8418L128.617 53.4827" stroke="#414042" stroke-width="0.710154" stroke-miterlimit="10"/>
<path d="M137.945 60.918L128.965 64.8984" stroke="#414042" stroke-width="0.710154" stroke-miterlimit="10"/>
<path d="M136.641 68.5239L126.625 72.7991" stroke="#414042" stroke-width="0.710154" stroke-miterlimit="10"/>
<path d="M127.523 90.1333H118.483" stroke="#414042" stroke-width="0.710154" stroke-miterlimit="10"/>
</g>
<defs>
<clipPath id="clip0_1172_2">
<rect width="181.931" height="100.292" fill="white" transform="translate(0.82074 0.977539)"/>
</clipPath>
</defs>
</svg>
