<svg width="1336" height="1376" viewBox="0 0 1336 1376" fill="none" xmlns="http://www.w3.org/2000/svg">
<g clip-path="url(#clip0_87_18)">
<path d="M1091.42 938.945C1069.31 935.81 1046.28 934.08 1022.66 934.08C1000.8 934.08 983.059 948.897 983.059 967.138V1342.93C983.059 1361.17 1000.8 1376 1022.66 1376C1046.29 1376 1069.31 1374.28 1091.42 1371.14V938.945Z" fill="white"/>
<path d="M1164.27 955.532V1354.54C1266.07 1321.83 1335.97 1255.07 1335.97 1178.15V1131.9C1335.97 1055.01 1266.07 988.232 1164.27 955.532Z" fill="white"/>
<path d="M653.845 591.391H682.114C901.558 591.391 1081.19 745.8 1091.01 938.879L1164.28 955.57C1164.28 721.222 948.01 530.575 682.1 530.575H653.831H653.431C387.561 530.575 171.269 721.222 171.269 955.57L244.533 938.879C254.352 745.8 433.986 591.391 653.417 591.391H653.845Z" fill="white"/>
<path d="M244.534 938.945C266.698 935.81 289.676 934.08 313.309 934.08C335.179 934.08 352.907 948.897 352.907 967.138V1342.93C352.907 1361.17 335.179 1376 313.309 1376C289.676 1376 266.698 1374.28 244.534 1371.14V938.945Z" fill="white"/>
<path d="M171.711 955.532V1354.54C69.9242 1321.83 0 1255.07 0 1178.15V1131.9C0 1055.01 69.9242 988.232 171.711 955.532Z" fill="white"/>
<path d="M785.052 107.983C782.906 107.983 780.798 108.319 778.798 108.962C776.988 99.4935 768.663 92.318 758.694 92.318C747.411 92.318 738.231 101.517 738.231 112.824C738.231 113.022 738.236 113.216 738.241 113.414H696.44V82.7124C710.73 83.9459 723.218 72.4171 723.223 58.1318C723.223 45.5912 713.798 35.2059 701.644 33.6555C702.751 30.8237 703.337 27.7848 703.337 24.674C703.337 11.0706 692.266 0 678.662 0C665.058 0 653.987 11.0706 653.987 24.675C653.987 27.7853 654.573 30.8247 655.68 33.6565C643.527 35.2069 634.106 45.5922 634.106 58.1328C634.106 72.4181 646.344 84.0038 660.884 82.7134V113.415H619.084C619.088 113.217 619.093 113.023 619.093 112.825C619.093 101.518 609.913 92.319 598.63 92.319C588.665 92.319 580.341 99.4945 578.531 108.963C576.531 108.32 574.418 107.984 572.272 107.984C560.989 107.984 551.809 117.164 551.809 128.447C551.809 139.731 560.989 148.91 572.272 148.91C574.418 148.91 576.531 148.575 578.531 147.932C580.341 157.4 588.665 164.575 598.63 164.575C609.913 164.575 619.093 155.377 619.093 144.07C619.093 143.871 619.088 143.678 619.084 143.479H660.884V236.757C646.543 235.419 634.106 247.052 634.106 261.337C634.106 273.878 643.527 284.263 655.68 285.814C654.574 288.645 653.987 291.684 653.987 294.795C653.987 308.398 665.058 319.469 678.662 319.469C692.266 319.469 703.337 308.398 703.337 294.794C703.337 291.683 702.751 288.644 701.644 285.812C713.798 284.262 723.223 273.876 723.223 261.336C723.227 247.056 710.952 235.489 696.44 236.755V143.478H738.241C738.236 143.677 738.231 143.87 738.231 144.069C738.231 155.376 747.411 164.574 758.694 164.574C768.663 164.574 776.988 157.399 778.798 147.931C780.798 148.574 782.906 148.909 785.052 148.909C796.335 148.909 805.515 139.73 805.515 128.446C805.515 117.163 796.336 107.983 785.052 107.983ZM785.052 139.228C781.98 139.228 779.054 137.924 777.031 135.65C775.485 133.906 772.918 133.513 770.933 134.709C766.808 137.173 769.482 141.101 769.482 144.069C769.482 150.039 764.641 154.893 758.695 154.893C752.748 154.893 747.912 150.039 747.912 144.069C747.912 140.432 750.151 138.864 748.073 135.877C747.171 134.572 745.686 133.797 744.098 133.797H691.6C688.925 133.797 686.759 135.962 686.759 138.637V242.806C686.759 244.39 687.534 245.874 688.839 246.782C690.139 247.685 691.794 247.892 693.287 247.344C695.098 246.668 696.804 246.342 698.497 246.342C706.792 246.342 713.543 253.069 713.543 261.336C713.543 269.604 706.792 276.33 698.497 276.33C696.795 276.33 695.084 276.032 693.552 275.47C691.383 274.681 688.93 275.536 687.734 277.53C686.542 279.526 686.935 282.087 688.674 283.633C691.842 286.451 693.657 290.52 693.657 294.794C693.657 303.061 686.93 309.788 678.663 309.788C670.395 309.788 663.669 303.061 663.669 294.794C663.669 290.52 665.489 286.455 668.656 283.633C670.395 282.087 670.788 279.53 669.596 277.535C668.703 276.037 667.105 275.177 665.442 275.177C664.889 275.177 664.326 275.271 663.777 275.47C662.217 276.042 660.554 276.33 658.828 276.33C650.532 276.33 643.787 269.604 643.787 261.336C643.787 251.367 653.51 243.44 664.032 247.335C665.517 247.898 667.181 247.685 668.485 246.777C669.79 245.875 670.565 244.385 670.565 242.802V138.638C670.565 135.962 668.4 133.797 665.725 133.797H613.226C609.837 133.797 607.519 137.187 608.688 140.326C609.175 141.63 609.412 142.854 609.412 144.069C609.412 150.039 604.576 154.894 598.629 154.894C592.683 154.894 587.847 150.039 587.847 144.069C587.847 140.852 590.515 137.175 586.401 134.714C584.42 133.523 581.844 133.897 580.299 135.65C578.276 137.924 575.349 139.229 572.272 139.229C566.325 139.229 561.49 134.393 561.49 128.447C561.49 122.501 566.326 117.665 572.272 117.665C575.349 117.665 578.275 118.97 580.294 121.248C581.84 122.987 584.406 123.375 586.401 122.188C590.42 119.779 587.847 115.679 587.847 112.824C587.847 106.854 592.683 101.999 598.629 101.999C604.576 101.999 609.412 106.854 609.412 112.824C609.412 114.039 609.175 115.268 608.693 116.573C608.14 118.062 608.353 119.721 609.26 121.021C610.163 122.321 611.647 123.096 613.231 123.096H665.724C668.399 123.096 670.565 120.931 670.565 118.255V76.6625C670.565 75.0786 669.789 73.5901 668.485 72.6871C667.18 71.7796 665.516 71.572 664.032 72.1295C653.43 76.086 643.787 68.0927 643.787 58.1328C643.787 49.8651 650.532 43.1388 658.828 43.1388C663.22 43.1388 666.999 46.2835 669.596 41.9333C670.787 39.9381 670.395 37.3813 668.655 35.8354C665.488 33.0136 663.668 28.9484 663.668 24.675C663.668 16.4072 670.395 9.6809 678.662 9.6809C686.929 9.6809 693.656 16.4072 693.656 24.675C693.656 28.9528 691.836 33.0181 688.669 35.8309C686.93 37.3763 686.537 39.9386 687.729 41.9333C690.327 46.285 694.03 43.1388 698.497 43.1388C706.792 43.1388 713.543 49.8651 713.543 58.1328C713.543 68.0783 703.772 76.0201 693.292 72.134C691.813 71.5715 690.144 71.7841 688.84 72.6921C687.535 73.5946 686.76 75.0841 686.76 76.6675V118.255C686.76 120.931 688.925 123.096 691.6 123.096H744.103C745.691 123.096 747.175 122.316 748.083 121.011C750.157 118.015 747.913 116.44 747.913 112.824C747.913 106.854 752.749 101.999 758.695 101.999C764.642 101.999 769.482 106.854 769.482 112.824C769.482 115.965 766.74 119.698 770.938 122.188C772.928 123.384 775.49 122.987 777.036 121.248C779.055 118.969 781.98 117.665 785.053 117.665C791 117.665 795.835 122.501 795.835 128.447C795.835 134.393 790.999 139.228 785.052 139.228Z" fill="white"/>
<path d="M844.587 1361.63V1160.61C844.587 1063.27 716.817 982.837 677.616 960.536C672.279 957.677 666.243 957.677 660.906 960.536C621.705 982.837 493.936 1063.27 493.936 1160.61C495.333 1366.97 491.013 1364.75 497.049 1364.75C857.167 1363.29 844.587 1367.8 844.587 1361.63ZM666.116 1007.17V1071.72C639.431 1072.68 615.86 1085.7 600.675 1105.59L575.578 1080.55C600.23 1053.04 633.459 1027.38 666.116 1007.17ZM672.406 1071.72V1007.17C705.254 1027.44 738.674 1053.23 763.389 1080.94L738.292 1106.1C721.773 1084.18 697.693 1072.55 672.406 1071.72ZM582.758 1359.03H536.695V1281.52H582.758V1359.03ZM582.758 1275.23H536.695V1197.01H582.758V1275.23ZM582.758 1190.72H536.695C540.126 1170.65 523.416 1141.61 571.449 1085.26L596.926 1110.73C576.786 1141.48 584.537 1168.36 582.758 1190.72ZM724.442 1188.88H721.392V1195.11H724.442V1235.26H693.119V1241.49H724.442V1281.64H693.119V1287.87H724.442V1328.02H693.119V1334.25H724.442V1358.97H683.779V1205.59C704.237 1204.58 712.052 1207.94 712.052 1202.48C711.036 1184.37 714.34 1176.62 708.939 1176.62H683.779V1144.22C683.779 1138.75 676.028 1142.12 657.92 1141.1C652.266 1141.1 655.887 1148.73 654.807 1176.62C634.349 1177.64 626.534 1174.27 626.534 1179.73C627.487 1197.84 624.246 1205.59 629.647 1205.59H654.807V1359.03H614.081V1334.31H645.404V1328.09H614.081V1287.93H645.404V1281.71H614.081V1241.55H645.404V1235.33H614.081V1195.17H617.131V1188.95H614.081C615.542 1165.88 609.697 1148.73 622.849 1128.27L645.404 1158.58V1148.09L626.724 1122.87C636.001 1111.75 649.47 1104.32 664.718 1103.05V1131.7H670.945V1102.86C686.829 1103.36 701.505 1110.48 711.862 1122.93L693.182 1148.16V1158.64L715.674 1128.27C728.699 1148.41 723.107 1165.69 724.442 1188.88ZM801.891 1359.03H755.765V1281.52H801.891V1359.03ZM801.891 1275.23H755.765V1197.01H801.891V1275.23ZM801.891 1190.72H755.765C753.986 1167.6 761.61 1141.61 741.977 1111.24L767.519 1085.7C814.852 1141.61 798.397 1170.46 801.891 1190.72Z" fill="white"/>
<path d="M837.051 392.113V575.703H527.954V392.113C527.954 306.758 597.148 237.565 682.502 237.565C767.857 237.565 837.051 306.758 837.051 392.113Z" fill="white" stroke="white" stroke-width="10.3724"/>
<path d="M638.94 392.056C638.94 367.997 658.445 348.492 682.504 348.492C706.564 348.492 726.068 367.997 726.068 392.056V493.705H638.94V392.056Z" fill="#1E1B1B"/>
<path d="M551.809 406.597C551.809 390.557 564.812 377.554 580.852 377.554C596.891 377.554 609.894 390.557 609.894 406.597V493.725H551.809V406.597Z" fill="#1E1B1B"/>
<path d="M755.105 406.597C755.105 390.557 768.108 377.554 784.147 377.554C800.187 377.554 813.19 390.557 813.19 406.597V493.725H755.105V406.597Z" fill="#1E1B1B"/>
</g>
<defs>
<clipPath id="clip0_87_18">
<rect width="1336" height="1376" fill="white"/>
</clipPath>
</defs>
</svg>
