<svg width="60" height="68" viewBox="0 0 60 68" fill="none" xmlns="http://www.w3.org/2000/svg">
<path d="M52.2956 34.3112C50.4385 42.9013 43.1541 61.0814 29.2703 60.8623C16.7878 60.6653 6.8597 48.4585 7.09421 33.5979C7.30439 20.2787 17.802 8.07522 30.1195 7.0504C37.6207 6.4245 46.9361 9.84985 51.1261 17.621C54.5354 23.948 53.1173 30.5071 52.2956 34.3112Z" stroke="#231F20" stroke-width="13.1379" stroke-miterlimit="10"/>
<path d="M13.8473 23.5223C14.4476 22.5075 20.1481 13.2408 31.1991 12.2456C39.1504 11.5311 47.7791 15.2788 51.0206 21.4436C53.2356 25.6536 54.1443 33.3092 54.1443 33.3092L53.2176 42.4456C52.5573 48.5656 50.2709 54.3869 46.6047 59.2824L43.1413 63.6544L40.0758 65.7325C38.535 66.4607 36.8791 66.9027 35.1862 67.0376C31.5926 67.314 28.8679 66.0873 26.8408 65.1728C24.5524 64.143 22.439 62.7495 20.5797 61.0443C15.2733 56.1369 13.7021 49.9134 12.6254 45.6399C11.6996 42.2222 11.2864 38.6811 11.3999 35.1369C11.5448 31.1499 12.3731 27.2191 13.8473 23.5223Z" fill="white" stroke="#231F20" stroke-width="0.355077" stroke-miterlimit="10"/>
<path d="M42.9053 40.2558C43.3026 39.0996 45.0583 38.0357 46.93 37.7817C49.1921 37.463 52.0936 38.2885 52.2862 39.5285C52.4502 40.5943 50.5909 41.8302 49.1546 42.2683C48.3949 42.4492 47.6175 42.5416 46.8374 42.5436C45.0272 42.6533 44.3591 42.4549 43.9103 42.2423C43.4705 42.0856 43.1036 41.7678 42.881 41.3506C42.7516 40.996 42.7603 40.6043 42.9053 40.2558Z" stroke="#231F20" stroke-width="0.710154" stroke-miterlimit="10"/>
<path d="M22.3995 31.6563C22.3282 30.6663 26.5611 28.8866 30.5729 29.2122C34.6542 29.5424 38.2667 32.0307 38.1361 33.2585C38.1298 33.4185 38.087 33.5748 38.0112 33.7151C37.9353 33.8554 37.8284 33.9758 37.699 34.0667C37.3236 34.2735 36.8302 34.0247 36.6576 33.9404C34.2146 32.7181 32.1028 31.6605 31.009 31.3314C27.6167 30.3138 24.7487 33.5398 22.7026 32.0686C22.5034 31.9095 22.4079 31.7875 22.3995 31.6563Z" fill="#231F20"/>
<path d="M35.6815 41.3641C35.8562 41.3101 36.2091 41.2094 36.3769 41.3751C36.5447 41.5407 36.4395 42.0353 36.303 42.3131C35.782 43.3681 34.4795 43.0392 34.0096 43.9462C33.6832 44.5755 33.8939 45.5464 34.3795 45.8482C34.9202 46.1863 35.4601 45.4718 36.3608 45.7022C37.206 45.9176 37.2703 46.6877 37.9506 46.9997C38.9657 47.4658 40.7078 46.6037 41.5427 45.4934C43.6423 42.6912 39.5604 38.8699 41.4556 34.4803C42.2028 32.9084 43.4633 31.6502 45.021 30.9215C48.6594 29.3415 52.8192 31.7534 52.9344 32.3861C52.948 32.4459 52.95 32.508 52.9401 32.5686C52.9301 32.6293 52.9086 32.6874 52.8766 32.7396C52.7555 32.922 52.4294 32.8707 52.308 32.8511C50.3232 32.5611 49.3308 32.4143 49.0264 32.3138C47.1617 31.6889 45.0867 32.9285 43.9846 34.0063C43.4825 34.4851 43.08 35.0618 42.801 35.7022C42.5221 36.3426 42.3723 37.0335 42.3607 37.7339C42.3448 38.0327 42.347 38.3322 42.3674 38.6307C42.5769 41.6643 43.458 43.7941 42.519 45.5513C42.199 46.1138 41.7543 46.5923 41.2206 46.9485C40.8686 47.2158 39.3132 48.3644 37.9366 47.882C37.2449 47.6407 37.331 47.2486 36.5425 46.9668C35.5259 46.5964 35.0687 47.135 34.3329 46.8185C33.4727 46.4506 32.9668 45.2305 33.0284 44.1965C33.0388 44.1967 33.1583 42.1323 35.6815 41.3641Z" fill="#231F20"/>
<path d="M42.0714 37.992C42.2026 38.0543 42.6277 37.338 43.638 36.794C44.2624 36.4856 44.9315 36.2819 45.6194 36.1909C46.4005 36.0045 47.2058 35.9478 48.0045 36.0229C48.8316 36.1524 49.65 36.3346 50.4547 36.5684C50.7836 36.6622 50.9428 36.7143 50.9606 36.6863C50.9785 36.6582 50.04 35.9629 48.7584 35.6272C48.4349 35.5363 48.1043 35.4742 47.7702 35.4415C47.0026 35.3812 46.2304 35.4517 45.4854 35.65C44.2602 35.9319 43.0978 36.2042 42.434 37.0514C42.1109 37.4752 41.9678 37.9478 42.0714 37.992Z" fill="#231F20"/>
<path d="M24.0898 35.1916C24.0522 35.1484 24.2315 35.0272 24.3862 34.9198C24.8341 34.6292 25.3216 34.4076 25.833 34.2621C26.3714 34.0978 26.9194 33.9679 27.4737 33.8734C28.6693 33.6919 29.8794 33.6303 31.0867 33.6894C32.4317 33.7496 33.2484 33.7837 34.2486 34.0937C35.5603 34.5007 36.873 35.287 36.6975 35.6102C36.6382 35.672 36.5656 35.7189 36.4855 35.7472C36.4054 35.7755 36.3199 35.7843 36.2358 35.7731C36.0066 35.7517 35.9434 35.5735 35.6443 35.3526C35.4039 35.1934 35.1455 35.0644 34.8748 34.9684C34.5254 34.8217 34.1672 34.6977 33.8025 34.597C32.8633 34.3689 31.9044 34.2351 30.9395 34.1974C29.9944 34.1513 29.0471 34.1837 28.107 34.2945C27.502 34.3718 26.9013 34.4806 26.3072 34.6205C25.019 34.9298 24.1684 35.2814 24.0898 35.1916Z" fill="#231F20"/>
<path d="M32.5688 40.2626C33.9476 40.2844 35.0806 39.3343 35.0994 38.1406C35.1183 36.9469 34.0158 35.9615 32.637 35.9398C31.2582 35.918 30.1252 36.8681 30.1064 38.0618C30.0876 39.2555 31.19 40.2408 32.5688 40.2626Z" fill="#231F20"/>
<path d="M52.2302 40.0018C52.2116 41.1781 50.4623 41.8346 49.4169 41.9634C48.7591 42.0957 48.0766 41.9737 47.5025 41.6213C47.2318 41.4348 47.0142 41.1787 46.8718 40.879C46.7293 40.5793 46.6671 40.2466 46.6913 39.9144C46.8172 38.768 48.2146 37.9289 49.5046 37.9492C51.0171 37.9731 52.2477 38.8927 52.2302 40.0018Z" fill="#231F20"/>
<path d="M24.1679 37.5181C24.1741 37.1213 24.8745 36.8204 26.3021 36.2724C27.7297 35.7243 28.5732 35.3903 29.7947 35.3422C30.3761 35.3274 30.9576 35.3674 31.5317 35.4617C32.5415 35.6053 33.4334 35.7292 34.3007 36.31C34.7274 36.5967 35.1782 36.9015 35.3262 37.439C35.6571 38.5075 34.5109 39.5172 34.3488 39.6529C33.7461 40.1537 32.9477 40.2793 32.0051 40.2893C30.7815 40.3465 29.5574 40.1918 28.3848 39.8317C27.4716 39.4614 26.5796 39.0391 25.7129 38.5668C24.4394 37.9442 24.171 37.7627 24.1679 37.5181Z" stroke="#231F20" stroke-width="0.710154" stroke-miterlimit="10"/>
<path d="M33.7758 51.9383L33.908 51.9404C33.9439 51.9409 33.9793 51.9487 34.0122 51.9634C34.0451 51.978 34.0749 51.9992 34.0997 52.0256C34.1245 52.052 34.1439 52.0832 34.1568 52.1174C34.1697 52.1515 34.1758 52.188 34.1747 52.2246L34.1713 52.4442C34.1672 52.4712 34.1668 52.4986 34.17 52.5257C34.1852 52.5679 34.2082 52.6068 34.2377 52.6402C34.617 53.0715 37.7903 53.196 37.7903 53.196C38.5309 53.2077 38.4017 53.2411 38.9337 53.253C39.8268 53.292 40.7217 53.2468 41.6068 53.118C42.1404 53.0353 42.6676 52.9145 43.1845 52.7566L43.1889 52.4767C43.19 52.4406 43.198 52.405 43.2126 52.3721C43.2272 52.3391 43.2481 52.3095 43.2741 52.2848C43.3 52.2602 43.3305 52.241 43.3638 52.2285C43.3971 52.2159 43.4324 52.2102 43.4679 52.2117L43.5374 52.2128C43.6093 52.214 43.6779 52.2442 43.7279 52.2968C43.778 52.3494 43.8054 52.4202 43.8043 52.4935L43.7907 53.351C43.7902 53.3875 43.7825 53.4237 43.7681 53.4572C43.7537 53.4908 43.7329 53.5211 43.707 53.5464C43.681 53.5717 43.6504 53.5915 43.6169 53.6046C43.5833 53.6178 43.5476 53.624 43.5117 53.623C41.9378 53.7399 40.2154 53.7978 38.3727 53.7581C36.7176 53.732 35.1648 53.6189 33.7343 53.4687C33.662 53.4676 33.5931 53.4375 33.5425 53.3849C33.492 53.3324 33.4637 53.2616 33.464 53.188L33.4793 52.2136C33.4799 52.1753 33.4881 52.1375 33.5035 52.1026C33.519 52.0676 33.5413 52.0363 33.5691 52.0105C33.5969 51.9847 33.6295 51.965 33.6651 51.9525C33.7007 51.9401 33.7384 51.9353 33.7758 51.9383Z" fill="#231F20"/>
<path d="M36.7304 55.1287L36.7258 55.4228L39.7478 55.4422L39.7513 55.2154L39.9413 55.0802C40.0233 55.0815 40.1015 55.1159 40.1586 55.176C40.2157 55.236 40.2471 55.3168 40.2458 55.4004L40.2336 56.1728C40.2323 56.2565 40.1984 56.3362 40.1394 56.3944C40.0804 56.4526 40.0012 56.4846 39.9191 56.4833L36.3552 56.4271C36.2731 56.4258 36.1949 56.3913 36.1378 56.3313C36.0807 56.2712 36.0494 56.1905 36.0507 56.1068L36.064 55.2635C36.0942 55.2336 36.1272 55.2068 36.1627 55.1836C36.2319 55.141 36.3095 55.1144 36.3899 55.1056L36.7304 55.1287Z" fill="#6D6E71"/>
</svg>
